<mxfile host="Electron" agent="Mozilla/5.0 (Macintosh; Intel Mac OS X 10_15_7) AppleWebKit/537.36 (KHTML, like Gecko) draw.io/25.0.2 Chrome/128.0.6613.186 Electron/32.2.5 Safari/537.36" version="25.0.2">
  <diagram name="第 1 页" id="IvqHyeAGdd7Yr8hoWfXT">
    <mxGraphModel dx="1509" dy="899" grid="1" gridSize="10" guides="1" tooltips="1" connect="1" arrows="1" fold="1" page="1" pageScale="1" pageWidth="1169" pageHeight="827" math="0" shadow="0">
      <root>
        <mxCell id="0" />
        <mxCell id="1" parent="0" />
        <mxCell id="I67YQaIDLJy_PH9fDKKf-313" value="" style="rounded=0;whiteSpace=wrap;html=1;strokeColor=none;" vertex="1" parent="1">
          <mxGeometry x="110" y="60" width="680" height="840" as="geometry" />
        </mxCell>
        <mxCell id="enbkcmcyID0ynl09Avmb-11" value="&lt;font color=&quot;#000000&quot; face=&quot;Comic Sans MS&quot;&gt;&lt;span style=&quot;font-size: 18px;&quot;&gt;&lt;b&gt;data(ConcurrentHashMap)&lt;/b&gt;&lt;/span&gt;&lt;/font&gt;" style="rounded=1;whiteSpace=wrap;html=1;fillColor=#60a917;strokeColor=#2D7600;fontColor=#ffffff;" parent="1" vertex="1">
          <mxGeometry x="200" y="80" width="560" height="40" as="geometry" />
        </mxCell>
        <mxCell id="Biw7-eiPxBGhHiRIIHcr-24" style="edgeStyle=orthogonalEdgeStyle;rounded=0;orthogonalLoop=1;jettySize=auto;html=1;exitX=0.5;exitY=1;exitDx=0;exitDy=0;entryX=0.5;entryY=0;entryDx=0;entryDy=0;strokeWidth=2;endArrow=diamondThin;endFill=0;" parent="1" source="Biw7-eiPxBGhHiRIIHcr-2" target="Biw7-eiPxBGhHiRIIHcr-5" edge="1">
          <mxGeometry relative="1" as="geometry" />
        </mxCell>
        <mxCell id="Biw7-eiPxBGhHiRIIHcr-2" value="&lt;b style=&quot;border-color: var(--border-color); font-size: 18px;&quot;&gt;&lt;font face=&quot;Comic Sans MS&quot;&gt;Window&lt;/font&gt;&lt;/b&gt;&lt;div&gt;&lt;span style=&quot;border-color: var(--border-color);&quot;&gt;&lt;font style=&quot;font-size: 15px;&quot; face=&quot;Comic Sans MS&quot;&gt;1%&lt;/font&gt;&lt;/span&gt;&lt;/div&gt;" style="rounded=1;whiteSpace=wrap;html=1;fillColor=#d5e8d4;strokeColor=#82b366;" parent="1" vertex="1">
          <mxGeometry x="200" y="120" width="80" height="46" as="geometry" />
        </mxCell>
        <mxCell id="Biw7-eiPxBGhHiRIIHcr-25" style="edgeStyle=orthogonalEdgeStyle;shape=connector;rounded=0;orthogonalLoop=1;jettySize=auto;html=1;exitX=0.5;exitY=1;exitDx=0;exitDy=0;entryX=0.5;entryY=0;entryDx=0;entryDy=0;strokeColor=default;strokeWidth=2;align=center;verticalAlign=middle;fontFamily=Helvetica;fontSize=11;fontColor=default;labelBackgroundColor=default;endArrow=diamondThin;endFill=0;" parent="1" source="Biw7-eiPxBGhHiRIIHcr-3" target="Biw7-eiPxBGhHiRIIHcr-11" edge="1">
          <mxGeometry relative="1" as="geometry" />
        </mxCell>
        <mxCell id="Biw7-eiPxBGhHiRIIHcr-3" value="&lt;b style=&quot;border-color: var(--border-color); font-size: 18px;&quot;&gt;&lt;font face=&quot;Comic Sans MS&quot;&gt;Probation&lt;/font&gt;&lt;/b&gt;&lt;div&gt;&lt;span style=&quot;font-family: &amp;quot;Comic Sans MS&amp;quot;; font-size: 15px;&quot;&gt;19%&lt;/span&gt;&lt;br&gt;&lt;/div&gt;" style="rounded=1;whiteSpace=wrap;html=1;fillColor=#d5e8d4;strokeColor=#82b366;" parent="1" vertex="1">
          <mxGeometry x="280" y="120" width="100" height="46" as="geometry" />
        </mxCell>
        <mxCell id="Biw7-eiPxBGhHiRIIHcr-26" style="edgeStyle=orthogonalEdgeStyle;shape=connector;rounded=0;orthogonalLoop=1;jettySize=auto;html=1;exitX=0.5;exitY=1;exitDx=0;exitDy=0;strokeColor=default;strokeWidth=2;align=center;verticalAlign=middle;fontFamily=Helvetica;fontSize=11;fontColor=default;labelBackgroundColor=default;endArrow=diamondThin;endFill=0;" parent="1" source="Biw7-eiPxBGhHiRIIHcr-4" target="Biw7-eiPxBGhHiRIIHcr-19" edge="1">
          <mxGeometry relative="1" as="geometry" />
        </mxCell>
        <mxCell id="Biw7-eiPxBGhHiRIIHcr-4" value="&lt;b style=&quot;border-color: var(--border-color); font-size: 18px;&quot;&gt;&lt;font face=&quot;Comic Sans MS&quot;&gt;Protected&lt;/font&gt;&lt;/b&gt;&lt;div&gt;&lt;span style=&quot;font-family: &amp;quot;Comic Sans MS&amp;quot;; font-size: 15px;&quot;&gt;80%&lt;/span&gt;&lt;br&gt;&lt;/div&gt;" style="rounded=1;whiteSpace=wrap;html=1;fillColor=#d5e8d4;strokeColor=#82b366;" parent="1" vertex="1">
          <mxGeometry x="380" y="120" width="380" height="46" as="geometry" />
        </mxCell>
        <mxCell id="Biw7-eiPxBGhHiRIIHcr-5" value="" style="rounded=1;whiteSpace=wrap;html=1;fillColor=#f8cecc;strokeColor=#b85450;sketch=1;curveFitting=1;jiggle=2;" parent="1" vertex="1">
          <mxGeometry x="225" y="230" width="30" height="20" as="geometry" />
        </mxCell>
        <mxCell id="Biw7-eiPxBGhHiRIIHcr-6" value="" style="rounded=1;whiteSpace=wrap;html=1;fillColor=#f8cecc;strokeColor=#b85450;sketch=1;curveFitting=1;jiggle=2;" parent="1" vertex="1">
          <mxGeometry x="225" y="250" width="30" height="20" as="geometry" />
        </mxCell>
        <mxCell id="Biw7-eiPxBGhHiRIIHcr-9" value="" style="rounded=1;whiteSpace=wrap;html=1;fillColor=#f8cecc;strokeColor=#b85450;sketch=1;curveFitting=1;jiggle=2;" parent="1" vertex="1">
          <mxGeometry x="225" y="290" width="30" height="20" as="geometry" />
        </mxCell>
        <mxCell id="Biw7-eiPxBGhHiRIIHcr-10" value="" style="rounded=1;whiteSpace=wrap;html=1;fillColor=#f8cecc;strokeColor=#b85450;sketch=1;curveFitting=1;jiggle=2;" parent="1" vertex="1">
          <mxGeometry x="225" y="270" width="30" height="20" as="geometry" />
        </mxCell>
        <mxCell id="Biw7-eiPxBGhHiRIIHcr-11" value="" style="rounded=1;whiteSpace=wrap;html=1;fillColor=#f8cecc;strokeColor=#b85450;sketch=1;curveFitting=1;jiggle=2;" parent="1" vertex="1">
          <mxGeometry x="315" y="230" width="30" height="20" as="geometry" />
        </mxCell>
        <mxCell id="Biw7-eiPxBGhHiRIIHcr-12" value="" style="rounded=1;whiteSpace=wrap;html=1;fillColor=#f8cecc;strokeColor=#b85450;sketch=1;curveFitting=1;jiggle=2;" parent="1" vertex="1">
          <mxGeometry x="315" y="250" width="30" height="20" as="geometry" />
        </mxCell>
        <mxCell id="Biw7-eiPxBGhHiRIIHcr-13" value="" style="rounded=1;whiteSpace=wrap;html=1;fillColor=#f8cecc;strokeColor=#b85450;sketch=1;curveFitting=1;jiggle=2;" parent="1" vertex="1">
          <mxGeometry x="315" y="290" width="30" height="20" as="geometry" />
        </mxCell>
        <mxCell id="Biw7-eiPxBGhHiRIIHcr-14" value="" style="rounded=1;whiteSpace=wrap;html=1;fillColor=#f8cecc;strokeColor=#b85450;sketch=1;curveFitting=1;jiggle=2;" parent="1" vertex="1">
          <mxGeometry x="315" y="270" width="30" height="20" as="geometry" />
        </mxCell>
        <mxCell id="Biw7-eiPxBGhHiRIIHcr-19" value="" style="rounded=1;whiteSpace=wrap;html=1;fillColor=#f8cecc;strokeColor=#b85450;sketch=1;curveFitting=1;jiggle=2;" parent="1" vertex="1">
          <mxGeometry x="555" y="230" width="30" height="20" as="geometry" />
        </mxCell>
        <mxCell id="Biw7-eiPxBGhHiRIIHcr-20" value="" style="rounded=1;whiteSpace=wrap;html=1;fillColor=#f8cecc;strokeColor=#b85450;sketch=1;curveFitting=1;jiggle=2;" parent="1" vertex="1">
          <mxGeometry x="555" y="250" width="30" height="20" as="geometry" />
        </mxCell>
        <mxCell id="Biw7-eiPxBGhHiRIIHcr-21" value="" style="rounded=1;whiteSpace=wrap;html=1;fillColor=#f8cecc;strokeColor=#b85450;sketch=1;curveFitting=1;jiggle=2;" parent="1" vertex="1">
          <mxGeometry x="555" y="290" width="30" height="20" as="geometry" />
        </mxCell>
        <mxCell id="Biw7-eiPxBGhHiRIIHcr-22" value="" style="rounded=1;whiteSpace=wrap;html=1;fillColor=#f8cecc;strokeColor=#b85450;sketch=1;curveFitting=1;jiggle=2;" parent="1" vertex="1">
          <mxGeometry x="555" y="270" width="30" height="20" as="geometry" />
        </mxCell>
        <mxCell id="Biw7-eiPxBGhHiRIIHcr-23" value="&lt;font face=&quot;Comic Sans MS&quot; style=&quot;font-size: 16px;&quot;&gt;WindowDeque&lt;/font&gt;" style="text;html=1;strokeColor=none;fillColor=none;align=center;verticalAlign=middle;whiteSpace=wrap;rounded=0;" parent="1" vertex="1">
          <mxGeometry x="120" y="180" width="120" height="30" as="geometry" />
        </mxCell>
        <mxCell id="Biw7-eiPxBGhHiRIIHcr-28" value="&lt;font face=&quot;Comic Sans MS&quot; style=&quot;font-size: 16px;&quot;&gt;ProbationDeque&lt;/font&gt;" style="text;html=1;strokeColor=none;fillColor=none;align=center;verticalAlign=middle;whiteSpace=wrap;rounded=0;" parent="1" vertex="1">
          <mxGeometry x="340" y="180" width="130" height="30" as="geometry" />
        </mxCell>
        <mxCell id="Biw7-eiPxBGhHiRIIHcr-29" value="&lt;font face=&quot;Comic Sans MS&quot; style=&quot;font-size: 16px;&quot;&gt;ProtectedDeque&lt;/font&gt;" style="text;html=1;strokeColor=none;fillColor=none;align=center;verticalAlign=middle;whiteSpace=wrap;rounded=0;" parent="1" vertex="1">
          <mxGeometry x="585" y="180" width="120" height="30" as="geometry" />
        </mxCell>
        <mxCell id="I67YQaIDLJy_PH9fDKKf-159" value="&lt;font face=&quot;Comic Sans MS&quot; style=&quot;font-size: 16px;&quot;&gt;FrequencySketch&lt;/font&gt;" style="text;html=1;strokeColor=none;fillColor=none;align=center;verticalAlign=middle;whiteSpace=wrap;rounded=0;" vertex="1" parent="1">
          <mxGeometry x="170" y="506" width="140" height="30" as="geometry" />
        </mxCell>
        <mxCell id="I67YQaIDLJy_PH9fDKKf-160" value="&lt;font style=&quot;font-size: 16px;&quot; face=&quot;Comic Sans MS&quot;&gt;&lt;b&gt;0&lt;/b&gt;&lt;/font&gt;" style="rounded=1;whiteSpace=wrap;html=1;fillColor=#dae8fc;strokeColor=#6c8ebf;sketch=1;curveFitting=1;jiggle=2;" vertex="1" parent="1">
          <mxGeometry x="320" y="456" width="40" height="40" as="geometry" />
        </mxCell>
        <mxCell id="I67YQaIDLJy_PH9fDKKf-161" value="&lt;b style=&quot;font-family: &amp;quot;Comic Sans MS&amp;quot;; font-size: 16px;&quot;&gt;2&lt;/b&gt;" style="rounded=1;whiteSpace=wrap;html=1;fillColor=#dae8fc;strokeColor=#6c8ebf;sketch=1;curveFitting=1;jiggle=2;" vertex="1" parent="1">
          <mxGeometry x="360" y="456" width="40" height="40" as="geometry" />
        </mxCell>
        <mxCell id="I67YQaIDLJy_PH9fDKKf-162" value="&lt;b style=&quot;forced-color-adjust: none; color: rgb(0, 0, 0); font-style: normal; font-variant-ligatures: normal; font-variant-caps: normal; letter-spacing: normal; orphans: 2; text-align: center; text-indent: 0px; text-transform: none; widows: 2; word-spacing: 0px; -webkit-text-stroke-width: 0px; white-space: normal; background-color: rgb(251, 251, 251); text-decoration-thickness: initial; text-decoration-style: initial; text-decoration-color: initial; font-family: &amp;quot;Comic Sans MS&amp;quot;; font-size: 16px;&quot;&gt;32&lt;/b&gt;" style="rounded=1;whiteSpace=wrap;html=1;fillColor=#dae8fc;strokeColor=#6c8ebf;sketch=1;curveFitting=1;jiggle=2;" vertex="1" parent="1">
          <mxGeometry x="440" y="456" width="40" height="40" as="geometry" />
        </mxCell>
        <mxCell id="I67YQaIDLJy_PH9fDKKf-163" value="&lt;b style=&quot;font-family: &amp;quot;Comic Sans MS&amp;quot;; font-size: 16px;&quot;&gt;0&lt;/b&gt;" style="rounded=1;whiteSpace=wrap;html=1;fillColor=#dae8fc;strokeColor=#6c8ebf;sketch=1;curveFitting=1;jiggle=2;" vertex="1" parent="1">
          <mxGeometry x="400" y="456" width="40" height="40" as="geometry" />
        </mxCell>
        <mxCell id="I67YQaIDLJy_PH9fDKKf-164" style="edgeStyle=orthogonalEdgeStyle;shape=connector;rounded=0;orthogonalLoop=1;jettySize=auto;html=1;exitX=0.5;exitY=1;exitDx=0;exitDy=0;strokeColor=default;strokeWidth=2;align=center;verticalAlign=middle;fontFamily=Helvetica;fontSize=11;fontColor=default;labelBackgroundColor=default;endArrow=diamondThin;endFill=0;" edge="1" parent="1" target="I67YQaIDLJy_PH9fDKKf-165">
          <mxGeometry relative="1" as="geometry">
            <mxPoint x="340" y="496" as="sourcePoint" />
          </mxGeometry>
        </mxCell>
        <mxCell id="I67YQaIDLJy_PH9fDKKf-165" value="" style="rounded=1;whiteSpace=wrap;html=1;fillColor=#fff2cc;strokeColor=#d6b656;sketch=1;curveFitting=1;jiggle=2;" vertex="1" parent="1">
          <mxGeometry x="325" y="560" width="30" height="20" as="geometry" />
        </mxCell>
        <mxCell id="I67YQaIDLJy_PH9fDKKf-166" value="" style="rounded=1;whiteSpace=wrap;html=1;fillColor=#fff2cc;strokeColor=#d6b656;sketch=1;curveFitting=1;jiggle=2;" vertex="1" parent="1">
          <mxGeometry x="325" y="580" width="30" height="20" as="geometry" />
        </mxCell>
        <mxCell id="I67YQaIDLJy_PH9fDKKf-167" value="" style="rounded=1;whiteSpace=wrap;html=1;fillColor=#fff2cc;strokeColor=#d6b656;sketch=1;curveFitting=1;jiggle=2;" vertex="1" parent="1">
          <mxGeometry x="325" y="600" width="30" height="20" as="geometry" />
        </mxCell>
        <mxCell id="I67YQaIDLJy_PH9fDKKf-168" value="" style="rounded=1;whiteSpace=wrap;html=1;fillColor=#fff2cc;strokeColor=#d6b656;sketch=1;curveFitting=1;jiggle=2;" vertex="1" parent="1">
          <mxGeometry x="325" y="620" width="30" height="20" as="geometry" />
        </mxCell>
        <mxCell id="I67YQaIDLJy_PH9fDKKf-169" value="" style="rounded=1;whiteSpace=wrap;html=1;fillColor=#fff2cc;strokeColor=#d6b656;sketch=1;curveFitting=1;jiggle=2;" vertex="1" parent="1">
          <mxGeometry x="325" y="640" width="30" height="20" as="geometry" />
        </mxCell>
        <mxCell id="I67YQaIDLJy_PH9fDKKf-170" value="" style="rounded=1;whiteSpace=wrap;html=1;fillColor=#fff2cc;strokeColor=#d6b656;sketch=1;curveFitting=1;jiggle=2;" vertex="1" parent="1">
          <mxGeometry x="325" y="660" width="30" height="20" as="geometry" />
        </mxCell>
        <mxCell id="I67YQaIDLJy_PH9fDKKf-171" value="" style="rounded=1;whiteSpace=wrap;html=1;fillColor=#fff2cc;strokeColor=#d6b656;sketch=1;curveFitting=1;jiggle=2;" vertex="1" parent="1">
          <mxGeometry x="325" y="680" width="30" height="20" as="geometry" />
        </mxCell>
        <mxCell id="I67YQaIDLJy_PH9fDKKf-172" value="" style="rounded=1;whiteSpace=wrap;html=1;fillColor=#fff2cc;strokeColor=#d6b656;sketch=1;curveFitting=1;jiggle=2;" vertex="1" parent="1">
          <mxGeometry x="325" y="700" width="30" height="20" as="geometry" />
        </mxCell>
        <mxCell id="I67YQaIDLJy_PH9fDKKf-173" value="" style="rounded=1;whiteSpace=wrap;html=1;fillColor=#fff2cc;strokeColor=#d6b656;sketch=1;curveFitting=1;jiggle=2;" vertex="1" parent="1">
          <mxGeometry x="325" y="720" width="30" height="20" as="geometry" />
        </mxCell>
        <mxCell id="I67YQaIDLJy_PH9fDKKf-174" value="" style="rounded=1;whiteSpace=wrap;html=1;fillColor=#fff2cc;strokeColor=#d6b656;sketch=1;curveFitting=1;jiggle=2;" vertex="1" parent="1">
          <mxGeometry x="325" y="740" width="30" height="20" as="geometry" />
        </mxCell>
        <mxCell id="I67YQaIDLJy_PH9fDKKf-175" value="" style="rounded=1;whiteSpace=wrap;html=1;fillColor=#fff2cc;strokeColor=#d6b656;sketch=1;curveFitting=1;jiggle=2;" vertex="1" parent="1">
          <mxGeometry x="325" y="760" width="30" height="20" as="geometry" />
        </mxCell>
        <mxCell id="I67YQaIDLJy_PH9fDKKf-176" value="" style="rounded=1;whiteSpace=wrap;html=1;fillColor=#fff2cc;strokeColor=#d6b656;sketch=1;curveFitting=1;jiggle=2;" vertex="1" parent="1">
          <mxGeometry x="325" y="780" width="30" height="20" as="geometry" />
        </mxCell>
        <mxCell id="I67YQaIDLJy_PH9fDKKf-177" value="" style="rounded=1;whiteSpace=wrap;html=1;fillColor=#fff2cc;strokeColor=#d6b656;sketch=1;curveFitting=1;jiggle=2;" vertex="1" parent="1">
          <mxGeometry x="325" y="803" width="30" height="20" as="geometry" />
        </mxCell>
        <mxCell id="I67YQaIDLJy_PH9fDKKf-178" value="" style="rounded=1;whiteSpace=wrap;html=1;fillColor=#fff2cc;strokeColor=#d6b656;sketch=1;curveFitting=1;jiggle=2;" vertex="1" parent="1">
          <mxGeometry x="325" y="823" width="30" height="20" as="geometry" />
        </mxCell>
        <mxCell id="I67YQaIDLJy_PH9fDKKf-179" value="" style="rounded=1;whiteSpace=wrap;html=1;fillColor=#fff2cc;strokeColor=#d6b656;sketch=1;curveFitting=1;jiggle=2;" vertex="1" parent="1">
          <mxGeometry x="325" y="843" width="30" height="20" as="geometry" />
        </mxCell>
        <mxCell id="I67YQaIDLJy_PH9fDKKf-180" value="" style="rounded=1;whiteSpace=wrap;html=1;fillColor=#fff2cc;strokeColor=#d6b656;sketch=1;curveFitting=1;jiggle=2;" vertex="1" parent="1">
          <mxGeometry x="325" y="863" width="30" height="20" as="geometry" />
        </mxCell>
        <mxCell id="I67YQaIDLJy_PH9fDKKf-181" style="edgeStyle=orthogonalEdgeStyle;shape=connector;rounded=0;orthogonalLoop=1;jettySize=auto;html=1;exitX=0.5;exitY=1;exitDx=0;exitDy=0;strokeColor=default;strokeWidth=2;align=center;verticalAlign=middle;fontFamily=Helvetica;fontSize=11;fontColor=default;labelBackgroundColor=default;endArrow=diamondThin;endFill=0;" edge="1" parent="1" target="I67YQaIDLJy_PH9fDKKf-182">
          <mxGeometry relative="1" as="geometry">
            <mxPoint x="380" y="496" as="sourcePoint" />
          </mxGeometry>
        </mxCell>
        <mxCell id="I67YQaIDLJy_PH9fDKKf-182" value="&lt;span style=&quot;font-family: &amp;quot;Comic Sans MS&amp;quot;;&quot;&gt;2&lt;/span&gt;" style="rounded=1;whiteSpace=wrap;html=1;fillColor=#fff2cc;strokeColor=#d6b656;sketch=1;curveFitting=1;jiggle=2;" vertex="1" parent="1">
          <mxGeometry x="365" y="560" width="30" height="20" as="geometry" />
        </mxCell>
        <mxCell id="I67YQaIDLJy_PH9fDKKf-183" value="" style="rounded=1;whiteSpace=wrap;html=1;fillColor=#fff2cc;strokeColor=#d6b656;sketch=1;curveFitting=1;jiggle=2;" vertex="1" parent="1">
          <mxGeometry x="365" y="580" width="30" height="20" as="geometry" />
        </mxCell>
        <mxCell id="I67YQaIDLJy_PH9fDKKf-184" value="" style="rounded=1;whiteSpace=wrap;html=1;fillColor=#fff2cc;strokeColor=#d6b656;sketch=1;curveFitting=1;jiggle=2;" vertex="1" parent="1">
          <mxGeometry x="365" y="600" width="30" height="20" as="geometry" />
        </mxCell>
        <mxCell id="I67YQaIDLJy_PH9fDKKf-185" value="" style="rounded=1;whiteSpace=wrap;html=1;fillColor=#fff2cc;strokeColor=#d6b656;sketch=1;curveFitting=1;jiggle=2;" vertex="1" parent="1">
          <mxGeometry x="365" y="620" width="30" height="20" as="geometry" />
        </mxCell>
        <mxCell id="I67YQaIDLJy_PH9fDKKf-186" value="" style="rounded=1;whiteSpace=wrap;html=1;fillColor=#fff2cc;strokeColor=#d6b656;sketch=1;curveFitting=1;jiggle=2;" vertex="1" parent="1">
          <mxGeometry x="365" y="640" width="30" height="20" as="geometry" />
        </mxCell>
        <mxCell id="I67YQaIDLJy_PH9fDKKf-187" value="" style="rounded=1;whiteSpace=wrap;html=1;fillColor=#fff2cc;strokeColor=#d6b656;sketch=1;curveFitting=1;jiggle=2;" vertex="1" parent="1">
          <mxGeometry x="365" y="660" width="30" height="20" as="geometry" />
        </mxCell>
        <mxCell id="I67YQaIDLJy_PH9fDKKf-188" value="" style="rounded=1;whiteSpace=wrap;html=1;fillColor=#fff2cc;strokeColor=#d6b656;sketch=1;curveFitting=1;jiggle=2;" vertex="1" parent="1">
          <mxGeometry x="365" y="680" width="30" height="20" as="geometry" />
        </mxCell>
        <mxCell id="I67YQaIDLJy_PH9fDKKf-189" value="" style="rounded=1;whiteSpace=wrap;html=1;fillColor=#fff2cc;strokeColor=#d6b656;sketch=1;curveFitting=1;jiggle=2;" vertex="1" parent="1">
          <mxGeometry x="365" y="700" width="30" height="20" as="geometry" />
        </mxCell>
        <mxCell id="I67YQaIDLJy_PH9fDKKf-190" value="" style="rounded=1;whiteSpace=wrap;html=1;fillColor=#fff2cc;strokeColor=#d6b656;sketch=1;curveFitting=1;jiggle=2;" vertex="1" parent="1">
          <mxGeometry x="365" y="720" width="30" height="20" as="geometry" />
        </mxCell>
        <mxCell id="I67YQaIDLJy_PH9fDKKf-191" value="" style="rounded=1;whiteSpace=wrap;html=1;fillColor=#fff2cc;strokeColor=#d6b656;sketch=1;curveFitting=1;jiggle=2;" vertex="1" parent="1">
          <mxGeometry x="365" y="740" width="30" height="20" as="geometry" />
        </mxCell>
        <mxCell id="I67YQaIDLJy_PH9fDKKf-192" value="" style="rounded=1;whiteSpace=wrap;html=1;fillColor=#fff2cc;strokeColor=#d6b656;sketch=1;curveFitting=1;jiggle=2;" vertex="1" parent="1">
          <mxGeometry x="365" y="760" width="30" height="20" as="geometry" />
        </mxCell>
        <mxCell id="I67YQaIDLJy_PH9fDKKf-193" value="" style="rounded=1;whiteSpace=wrap;html=1;fillColor=#fff2cc;strokeColor=#d6b656;sketch=1;curveFitting=1;jiggle=2;" vertex="1" parent="1">
          <mxGeometry x="365" y="780" width="30" height="20" as="geometry" />
        </mxCell>
        <mxCell id="I67YQaIDLJy_PH9fDKKf-194" value="" style="rounded=1;whiteSpace=wrap;html=1;fillColor=#fff2cc;strokeColor=#d6b656;sketch=1;curveFitting=1;jiggle=2;" vertex="1" parent="1">
          <mxGeometry x="365" y="803" width="30" height="20" as="geometry" />
        </mxCell>
        <mxCell id="I67YQaIDLJy_PH9fDKKf-195" value="" style="rounded=1;whiteSpace=wrap;html=1;fillColor=#fff2cc;strokeColor=#d6b656;sketch=1;curveFitting=1;jiggle=2;" vertex="1" parent="1">
          <mxGeometry x="365" y="823" width="30" height="20" as="geometry" />
        </mxCell>
        <mxCell id="I67YQaIDLJy_PH9fDKKf-196" value="" style="rounded=1;whiteSpace=wrap;html=1;fillColor=#fff2cc;strokeColor=#d6b656;sketch=1;curveFitting=1;jiggle=2;" vertex="1" parent="1">
          <mxGeometry x="365" y="843" width="30" height="20" as="geometry" />
        </mxCell>
        <mxCell id="I67YQaIDLJy_PH9fDKKf-197" value="" style="rounded=1;whiteSpace=wrap;html=1;fillColor=#fff2cc;strokeColor=#d6b656;sketch=1;curveFitting=1;jiggle=2;" vertex="1" parent="1">
          <mxGeometry x="365" y="863" width="30" height="20" as="geometry" />
        </mxCell>
        <mxCell id="I67YQaIDLJy_PH9fDKKf-198" style="edgeStyle=orthogonalEdgeStyle;shape=connector;rounded=0;orthogonalLoop=1;jettySize=auto;html=1;exitX=0.5;exitY=1;exitDx=0;exitDy=0;strokeColor=default;strokeWidth=2;align=center;verticalAlign=middle;fontFamily=Helvetica;fontSize=11;fontColor=default;labelBackgroundColor=default;endArrow=diamondThin;endFill=0;" edge="1" parent="1" target="I67YQaIDLJy_PH9fDKKf-199">
          <mxGeometry relative="1" as="geometry">
            <mxPoint x="420" y="496.5" as="sourcePoint" />
          </mxGeometry>
        </mxCell>
        <mxCell id="I67YQaIDLJy_PH9fDKKf-199" value="" style="rounded=1;whiteSpace=wrap;html=1;fillColor=#fff2cc;strokeColor=#d6b656;sketch=1;curveFitting=1;jiggle=2;" vertex="1" parent="1">
          <mxGeometry x="405" y="560.5" width="30" height="20" as="geometry" />
        </mxCell>
        <mxCell id="I67YQaIDLJy_PH9fDKKf-200" value="" style="rounded=1;whiteSpace=wrap;html=1;fillColor=#fff2cc;strokeColor=#d6b656;sketch=1;curveFitting=1;jiggle=2;" vertex="1" parent="1">
          <mxGeometry x="405" y="580.5" width="30" height="20" as="geometry" />
        </mxCell>
        <mxCell id="I67YQaIDLJy_PH9fDKKf-201" value="" style="rounded=1;whiteSpace=wrap;html=1;fillColor=#fff2cc;strokeColor=#d6b656;sketch=1;curveFitting=1;jiggle=2;" vertex="1" parent="1">
          <mxGeometry x="405" y="600.5" width="30" height="20" as="geometry" />
        </mxCell>
        <mxCell id="I67YQaIDLJy_PH9fDKKf-202" value="" style="rounded=1;whiteSpace=wrap;html=1;fillColor=#fff2cc;strokeColor=#d6b656;sketch=1;curveFitting=1;jiggle=2;" vertex="1" parent="1">
          <mxGeometry x="405" y="620.5" width="30" height="20" as="geometry" />
        </mxCell>
        <mxCell id="I67YQaIDLJy_PH9fDKKf-203" value="" style="rounded=1;whiteSpace=wrap;html=1;fillColor=#fff2cc;strokeColor=#d6b656;sketch=1;curveFitting=1;jiggle=2;" vertex="1" parent="1">
          <mxGeometry x="405" y="640.5" width="30" height="20" as="geometry" />
        </mxCell>
        <mxCell id="I67YQaIDLJy_PH9fDKKf-204" value="" style="rounded=1;whiteSpace=wrap;html=1;fillColor=#fff2cc;strokeColor=#d6b656;sketch=1;curveFitting=1;jiggle=2;" vertex="1" parent="1">
          <mxGeometry x="405" y="660.5" width="30" height="20" as="geometry" />
        </mxCell>
        <mxCell id="I67YQaIDLJy_PH9fDKKf-205" value="" style="rounded=1;whiteSpace=wrap;html=1;fillColor=#fff2cc;strokeColor=#d6b656;sketch=1;curveFitting=1;jiggle=2;" vertex="1" parent="1">
          <mxGeometry x="405" y="680.5" width="30" height="20" as="geometry" />
        </mxCell>
        <mxCell id="I67YQaIDLJy_PH9fDKKf-206" value="" style="rounded=1;whiteSpace=wrap;html=1;fillColor=#fff2cc;strokeColor=#d6b656;sketch=1;curveFitting=1;jiggle=2;" vertex="1" parent="1">
          <mxGeometry x="405" y="700.5" width="30" height="20" as="geometry" />
        </mxCell>
        <mxCell id="I67YQaIDLJy_PH9fDKKf-207" value="" style="rounded=1;whiteSpace=wrap;html=1;fillColor=#fff2cc;strokeColor=#d6b656;sketch=1;curveFitting=1;jiggle=2;" vertex="1" parent="1">
          <mxGeometry x="405" y="720.5" width="30" height="20" as="geometry" />
        </mxCell>
        <mxCell id="I67YQaIDLJy_PH9fDKKf-208" value="" style="rounded=1;whiteSpace=wrap;html=1;fillColor=#fff2cc;strokeColor=#d6b656;sketch=1;curveFitting=1;jiggle=2;" vertex="1" parent="1">
          <mxGeometry x="405" y="740.5" width="30" height="20" as="geometry" />
        </mxCell>
        <mxCell id="I67YQaIDLJy_PH9fDKKf-209" value="" style="rounded=1;whiteSpace=wrap;html=1;fillColor=#fff2cc;strokeColor=#d6b656;sketch=1;curveFitting=1;jiggle=2;" vertex="1" parent="1">
          <mxGeometry x="405" y="760.5" width="30" height="20" as="geometry" />
        </mxCell>
        <mxCell id="I67YQaIDLJy_PH9fDKKf-210" value="" style="rounded=1;whiteSpace=wrap;html=1;fillColor=#fff2cc;strokeColor=#d6b656;sketch=1;curveFitting=1;jiggle=2;" vertex="1" parent="1">
          <mxGeometry x="405" y="780.5" width="30" height="20" as="geometry" />
        </mxCell>
        <mxCell id="I67YQaIDLJy_PH9fDKKf-211" value="" style="rounded=1;whiteSpace=wrap;html=1;fillColor=#fff2cc;strokeColor=#d6b656;sketch=1;curveFitting=1;jiggle=2;" vertex="1" parent="1">
          <mxGeometry x="405" y="803.5" width="30" height="20" as="geometry" />
        </mxCell>
        <mxCell id="I67YQaIDLJy_PH9fDKKf-212" value="" style="rounded=1;whiteSpace=wrap;html=1;fillColor=#fff2cc;strokeColor=#d6b656;sketch=1;curveFitting=1;jiggle=2;" vertex="1" parent="1">
          <mxGeometry x="405" y="823.5" width="30" height="20" as="geometry" />
        </mxCell>
        <mxCell id="I67YQaIDLJy_PH9fDKKf-213" value="" style="rounded=1;whiteSpace=wrap;html=1;fillColor=#fff2cc;strokeColor=#d6b656;sketch=1;curveFitting=1;jiggle=2;" vertex="1" parent="1">
          <mxGeometry x="405" y="843.5" width="30" height="20" as="geometry" />
        </mxCell>
        <mxCell id="I67YQaIDLJy_PH9fDKKf-214" value="" style="rounded=1;whiteSpace=wrap;html=1;fillColor=#fff2cc;strokeColor=#d6b656;sketch=1;curveFitting=1;jiggle=2;" vertex="1" parent="1">
          <mxGeometry x="405" y="863.5" width="30" height="20" as="geometry" />
        </mxCell>
        <mxCell id="I67YQaIDLJy_PH9fDKKf-215" style="edgeStyle=orthogonalEdgeStyle;shape=connector;rounded=0;orthogonalLoop=1;jettySize=auto;html=1;exitX=0.5;exitY=1;exitDx=0;exitDy=0;strokeColor=default;strokeWidth=2;align=center;verticalAlign=middle;fontFamily=Helvetica;fontSize=11;fontColor=default;labelBackgroundColor=default;endArrow=diamondThin;endFill=0;" edge="1" parent="1" target="I67YQaIDLJy_PH9fDKKf-216">
          <mxGeometry relative="1" as="geometry">
            <mxPoint x="460" y="496.5" as="sourcePoint" />
          </mxGeometry>
        </mxCell>
        <mxCell id="I67YQaIDLJy_PH9fDKKf-216" value="" style="rounded=1;whiteSpace=wrap;html=1;fillColor=#fff2cc;strokeColor=#d6b656;sketch=1;curveFitting=1;jiggle=2;" vertex="1" parent="1">
          <mxGeometry x="445" y="560.5" width="30" height="20" as="geometry" />
        </mxCell>
        <mxCell id="I67YQaIDLJy_PH9fDKKf-217" value="&lt;meta charset=&quot;utf-8&quot;&gt;&lt;span style=&quot;color: rgb(0, 0, 0); font-family: &amp;quot;Comic Sans MS&amp;quot;; font-size: 12px; font-style: normal; font-variant-ligatures: normal; font-variant-caps: normal; font-weight: 400; letter-spacing: normal; orphans: 2; text-align: center; text-indent: 0px; text-transform: none; widows: 2; word-spacing: 0px; -webkit-text-stroke-width: 0px; white-space: normal; background-color: rgb(251, 251, 251); text-decoration-thickness: initial; text-decoration-style: initial; text-decoration-color: initial; display: inline !important; float: none;&quot;&gt;2&lt;/span&gt;" style="rounded=1;whiteSpace=wrap;html=1;fillColor=#fff2cc;strokeColor=#d6b656;sketch=1;curveFitting=1;jiggle=2;" vertex="1" parent="1">
          <mxGeometry x="445" y="580.5" width="30" height="20" as="geometry" />
        </mxCell>
        <mxCell id="I67YQaIDLJy_PH9fDKKf-218" value="" style="rounded=1;whiteSpace=wrap;html=1;fillColor=#fff2cc;strokeColor=#d6b656;sketch=1;curveFitting=1;jiggle=2;" vertex="1" parent="1">
          <mxGeometry x="445" y="600.5" width="30" height="20" as="geometry" />
        </mxCell>
        <mxCell id="I67YQaIDLJy_PH9fDKKf-219" value="" style="rounded=1;whiteSpace=wrap;html=1;fillColor=#fff2cc;strokeColor=#d6b656;sketch=1;curveFitting=1;jiggle=2;" vertex="1" parent="1">
          <mxGeometry x="445" y="620.5" width="30" height="20" as="geometry" />
        </mxCell>
        <mxCell id="I67YQaIDLJy_PH9fDKKf-220" value="" style="rounded=1;whiteSpace=wrap;html=1;fillColor=#fff2cc;strokeColor=#d6b656;sketch=1;curveFitting=1;jiggle=2;" vertex="1" parent="1">
          <mxGeometry x="445" y="640.5" width="30" height="20" as="geometry" />
        </mxCell>
        <mxCell id="I67YQaIDLJy_PH9fDKKf-221" value="" style="rounded=1;whiteSpace=wrap;html=1;fillColor=#fff2cc;strokeColor=#d6b656;sketch=1;curveFitting=1;jiggle=2;" vertex="1" parent="1">
          <mxGeometry x="445" y="660.5" width="30" height="20" as="geometry" />
        </mxCell>
        <mxCell id="I67YQaIDLJy_PH9fDKKf-222" value="" style="rounded=1;whiteSpace=wrap;html=1;fillColor=#fff2cc;strokeColor=#d6b656;sketch=1;curveFitting=1;jiggle=2;" vertex="1" parent="1">
          <mxGeometry x="445" y="680.5" width="30" height="20" as="geometry" />
        </mxCell>
        <mxCell id="I67YQaIDLJy_PH9fDKKf-223" value="" style="rounded=1;whiteSpace=wrap;html=1;fillColor=#fff2cc;strokeColor=#d6b656;sketch=1;curveFitting=1;jiggle=2;" vertex="1" parent="1">
          <mxGeometry x="445" y="700.5" width="30" height="20" as="geometry" />
        </mxCell>
        <mxCell id="I67YQaIDLJy_PH9fDKKf-224" value="" style="rounded=1;whiteSpace=wrap;html=1;fillColor=#fff2cc;strokeColor=#d6b656;sketch=1;curveFitting=1;jiggle=2;" vertex="1" parent="1">
          <mxGeometry x="445" y="720.5" width="30" height="20" as="geometry" />
        </mxCell>
        <mxCell id="I67YQaIDLJy_PH9fDKKf-225" value="" style="rounded=1;whiteSpace=wrap;html=1;fillColor=#fff2cc;strokeColor=#d6b656;sketch=1;curveFitting=1;jiggle=2;" vertex="1" parent="1">
          <mxGeometry x="445" y="740.5" width="30" height="20" as="geometry" />
        </mxCell>
        <mxCell id="I67YQaIDLJy_PH9fDKKf-226" value="" style="rounded=1;whiteSpace=wrap;html=1;fillColor=#fff2cc;strokeColor=#d6b656;sketch=1;curveFitting=1;jiggle=2;" vertex="1" parent="1">
          <mxGeometry x="445" y="760.5" width="30" height="20" as="geometry" />
        </mxCell>
        <mxCell id="I67YQaIDLJy_PH9fDKKf-227" value="" style="rounded=1;whiteSpace=wrap;html=1;fillColor=#fff2cc;strokeColor=#d6b656;sketch=1;curveFitting=1;jiggle=2;" vertex="1" parent="1">
          <mxGeometry x="445" y="780.5" width="30" height="20" as="geometry" />
        </mxCell>
        <mxCell id="I67YQaIDLJy_PH9fDKKf-228" value="" style="rounded=1;whiteSpace=wrap;html=1;fillColor=#fff2cc;strokeColor=#d6b656;sketch=1;curveFitting=1;jiggle=2;" vertex="1" parent="1">
          <mxGeometry x="445" y="803.5" width="30" height="20" as="geometry" />
        </mxCell>
        <mxCell id="I67YQaIDLJy_PH9fDKKf-229" value="" style="rounded=1;whiteSpace=wrap;html=1;fillColor=#fff2cc;strokeColor=#d6b656;sketch=1;curveFitting=1;jiggle=2;" vertex="1" parent="1">
          <mxGeometry x="445" y="823.5" width="30" height="20" as="geometry" />
        </mxCell>
        <mxCell id="I67YQaIDLJy_PH9fDKKf-230" value="" style="rounded=1;whiteSpace=wrap;html=1;fillColor=#fff2cc;strokeColor=#d6b656;sketch=1;curveFitting=1;jiggle=2;" vertex="1" parent="1">
          <mxGeometry x="445" y="843.5" width="30" height="20" as="geometry" />
        </mxCell>
        <mxCell id="I67YQaIDLJy_PH9fDKKf-231" value="" style="rounded=1;whiteSpace=wrap;html=1;fillColor=#fff2cc;strokeColor=#d6b656;sketch=1;curveFitting=1;jiggle=2;" vertex="1" parent="1">
          <mxGeometry x="445" y="863.5" width="30" height="20" as="geometry" />
        </mxCell>
        <mxCell id="I67YQaIDLJy_PH9fDKKf-232" value="&lt;b style=&quot;font-family: &amp;quot;Comic Sans MS&amp;quot;; font-size: 16px;&quot;&gt;0&lt;/b&gt;" style="rounded=1;whiteSpace=wrap;html=1;fillColor=#dae8fc;strokeColor=#6c8ebf;sketch=1;curveFitting=1;jiggle=2;" vertex="1" parent="1">
          <mxGeometry x="480" y="456.75" width="40" height="40" as="geometry" />
        </mxCell>
        <mxCell id="I67YQaIDLJy_PH9fDKKf-233" value="&lt;b style=&quot;forced-color-adjust: none; color: rgb(0, 0, 0); font-style: normal; font-variant-ligatures: normal; font-variant-caps: normal; letter-spacing: normal; orphans: 2; text-align: center; text-indent: 0px; text-transform: none; widows: 2; word-spacing: 0px; -webkit-text-stroke-width: 0px; white-space: normal; background-color: rgb(251, 251, 251); text-decoration-thickness: initial; text-decoration-style: initial; text-decoration-color: initial; font-family: &amp;quot;Comic Sans MS&amp;quot;; font-size: 16px;&quot;&gt;2&lt;/b&gt;" style="rounded=1;whiteSpace=wrap;html=1;fillColor=#dae8fc;strokeColor=#6c8ebf;sketch=1;curveFitting=1;jiggle=2;" vertex="1" parent="1">
          <mxGeometry x="520" y="456.75" width="40" height="40" as="geometry" />
        </mxCell>
        <mxCell id="I67YQaIDLJy_PH9fDKKf-234" value="&lt;b style=&quot;forced-color-adjust: none; color: rgb(0, 0, 0); font-style: normal; font-variant-ligatures: normal; font-variant-caps: normal; letter-spacing: normal; orphans: 2; text-align: center; text-indent: 0px; text-transform: none; widows: 2; word-spacing: 0px; -webkit-text-stroke-width: 0px; white-space: normal; text-decoration-thickness: initial; text-decoration-style: initial; text-decoration-color: initial; background-color: rgb(251, 251, 251); font-family: &amp;quot;Comic Sans MS&amp;quot;; font-size: 16px;&quot;&gt;512&lt;/b&gt;" style="rounded=1;whiteSpace=wrap;html=1;fillColor=#dae8fc;strokeColor=#6c8ebf;sketch=1;curveFitting=1;jiggle=2;" vertex="1" parent="1">
          <mxGeometry x="600" y="456.75" width="40" height="40" as="geometry" />
        </mxCell>
        <mxCell id="I67YQaIDLJy_PH9fDKKf-235" value="&lt;b style=&quot;font-family: &amp;quot;Comic Sans MS&amp;quot;; font-size: 16px;&quot;&gt;0&lt;/b&gt;" style="rounded=1;whiteSpace=wrap;html=1;fillColor=#dae8fc;strokeColor=#6c8ebf;sketch=1;curveFitting=1;jiggle=2;" vertex="1" parent="1">
          <mxGeometry x="560" y="456.75" width="40" height="40" as="geometry" />
        </mxCell>
        <mxCell id="I67YQaIDLJy_PH9fDKKf-236" style="edgeStyle=orthogonalEdgeStyle;shape=connector;rounded=0;orthogonalLoop=1;jettySize=auto;html=1;exitX=0.5;exitY=1;exitDx=0;exitDy=0;strokeColor=default;strokeWidth=2;align=center;verticalAlign=middle;fontFamily=Helvetica;fontSize=11;fontColor=default;labelBackgroundColor=default;endArrow=diamondThin;endFill=0;" edge="1" parent="1" target="I67YQaIDLJy_PH9fDKKf-237">
          <mxGeometry relative="1" as="geometry">
            <mxPoint x="500" y="496.75" as="sourcePoint" />
          </mxGeometry>
        </mxCell>
        <mxCell id="I67YQaIDLJy_PH9fDKKf-237" value="" style="rounded=1;whiteSpace=wrap;html=1;fillColor=#fff2cc;strokeColor=#d6b656;sketch=1;curveFitting=1;jiggle=2;" vertex="1" parent="1">
          <mxGeometry x="485" y="560.75" width="30" height="20" as="geometry" />
        </mxCell>
        <mxCell id="I67YQaIDLJy_PH9fDKKf-238" value="" style="rounded=1;whiteSpace=wrap;html=1;fillColor=#fff2cc;strokeColor=#d6b656;sketch=1;curveFitting=1;jiggle=2;" vertex="1" parent="1">
          <mxGeometry x="485" y="580.75" width="30" height="20" as="geometry" />
        </mxCell>
        <mxCell id="I67YQaIDLJy_PH9fDKKf-239" value="" style="rounded=1;whiteSpace=wrap;html=1;fillColor=#fff2cc;strokeColor=#d6b656;sketch=1;curveFitting=1;jiggle=2;" vertex="1" parent="1">
          <mxGeometry x="485" y="600.75" width="30" height="20" as="geometry" />
        </mxCell>
        <mxCell id="I67YQaIDLJy_PH9fDKKf-240" value="" style="rounded=1;whiteSpace=wrap;html=1;fillColor=#fff2cc;strokeColor=#d6b656;sketch=1;curveFitting=1;jiggle=2;" vertex="1" parent="1">
          <mxGeometry x="485" y="620.75" width="30" height="20" as="geometry" />
        </mxCell>
        <mxCell id="I67YQaIDLJy_PH9fDKKf-241" value="" style="rounded=1;whiteSpace=wrap;html=1;fillColor=#fff2cc;strokeColor=#d6b656;sketch=1;curveFitting=1;jiggle=2;" vertex="1" parent="1">
          <mxGeometry x="485" y="640.75" width="30" height="20" as="geometry" />
        </mxCell>
        <mxCell id="I67YQaIDLJy_PH9fDKKf-242" value="" style="rounded=1;whiteSpace=wrap;html=1;fillColor=#fff2cc;strokeColor=#d6b656;sketch=1;curveFitting=1;jiggle=2;" vertex="1" parent="1">
          <mxGeometry x="485" y="660.75" width="30" height="20" as="geometry" />
        </mxCell>
        <mxCell id="I67YQaIDLJy_PH9fDKKf-243" value="" style="rounded=1;whiteSpace=wrap;html=1;fillColor=#fff2cc;strokeColor=#d6b656;sketch=1;curveFitting=1;jiggle=2;" vertex="1" parent="1">
          <mxGeometry x="485" y="680.75" width="30" height="20" as="geometry" />
        </mxCell>
        <mxCell id="I67YQaIDLJy_PH9fDKKf-244" value="" style="rounded=1;whiteSpace=wrap;html=1;fillColor=#fff2cc;strokeColor=#d6b656;sketch=1;curveFitting=1;jiggle=2;" vertex="1" parent="1">
          <mxGeometry x="485" y="700.75" width="30" height="20" as="geometry" />
        </mxCell>
        <mxCell id="I67YQaIDLJy_PH9fDKKf-245" value="" style="rounded=1;whiteSpace=wrap;html=1;fillColor=#fff2cc;strokeColor=#d6b656;sketch=1;curveFitting=1;jiggle=2;" vertex="1" parent="1">
          <mxGeometry x="485" y="720.75" width="30" height="20" as="geometry" />
        </mxCell>
        <mxCell id="I67YQaIDLJy_PH9fDKKf-246" value="" style="rounded=1;whiteSpace=wrap;html=1;fillColor=#fff2cc;strokeColor=#d6b656;sketch=1;curveFitting=1;jiggle=2;" vertex="1" parent="1">
          <mxGeometry x="485" y="740.75" width="30" height="20" as="geometry" />
        </mxCell>
        <mxCell id="I67YQaIDLJy_PH9fDKKf-247" value="" style="rounded=1;whiteSpace=wrap;html=1;fillColor=#fff2cc;strokeColor=#d6b656;sketch=1;curveFitting=1;jiggle=2;" vertex="1" parent="1">
          <mxGeometry x="485" y="760.75" width="30" height="20" as="geometry" />
        </mxCell>
        <mxCell id="I67YQaIDLJy_PH9fDKKf-248" value="" style="rounded=1;whiteSpace=wrap;html=1;fillColor=#fff2cc;strokeColor=#d6b656;sketch=1;curveFitting=1;jiggle=2;" vertex="1" parent="1">
          <mxGeometry x="485" y="780.75" width="30" height="20" as="geometry" />
        </mxCell>
        <mxCell id="I67YQaIDLJy_PH9fDKKf-249" value="" style="rounded=1;whiteSpace=wrap;html=1;fillColor=#fff2cc;strokeColor=#d6b656;sketch=1;curveFitting=1;jiggle=2;" vertex="1" parent="1">
          <mxGeometry x="485" y="803.75" width="30" height="20" as="geometry" />
        </mxCell>
        <mxCell id="I67YQaIDLJy_PH9fDKKf-250" value="" style="rounded=1;whiteSpace=wrap;html=1;fillColor=#fff2cc;strokeColor=#d6b656;sketch=1;curveFitting=1;jiggle=2;" vertex="1" parent="1">
          <mxGeometry x="485" y="823.75" width="30" height="20" as="geometry" />
        </mxCell>
        <mxCell id="I67YQaIDLJy_PH9fDKKf-251" value="" style="rounded=1;whiteSpace=wrap;html=1;fillColor=#fff2cc;strokeColor=#d6b656;sketch=1;curveFitting=1;jiggle=2;" vertex="1" parent="1">
          <mxGeometry x="485" y="843.75" width="30" height="20" as="geometry" />
        </mxCell>
        <mxCell id="I67YQaIDLJy_PH9fDKKf-252" value="" style="rounded=1;whiteSpace=wrap;html=1;fillColor=#fff2cc;strokeColor=#d6b656;sketch=1;curveFitting=1;jiggle=2;" vertex="1" parent="1">
          <mxGeometry x="485" y="863.75" width="30" height="20" as="geometry" />
        </mxCell>
        <mxCell id="I67YQaIDLJy_PH9fDKKf-253" style="edgeStyle=orthogonalEdgeStyle;shape=connector;rounded=0;orthogonalLoop=1;jettySize=auto;html=1;exitX=0.5;exitY=1;exitDx=0;exitDy=0;strokeColor=default;strokeWidth=2;align=center;verticalAlign=middle;fontFamily=Helvetica;fontSize=11;fontColor=default;labelBackgroundColor=default;endArrow=diamondThin;endFill=0;" edge="1" parent="1" target="I67YQaIDLJy_PH9fDKKf-254">
          <mxGeometry relative="1" as="geometry">
            <mxPoint x="540" y="496.75" as="sourcePoint" />
          </mxGeometry>
        </mxCell>
        <mxCell id="I67YQaIDLJy_PH9fDKKf-254" value="&lt;span style=&quot;font-family: &amp;quot;Comic Sans MS&amp;quot;;&quot;&gt;2&lt;/span&gt;" style="rounded=1;whiteSpace=wrap;html=1;fillColor=#fff2cc;strokeColor=#d6b656;sketch=1;curveFitting=1;jiggle=2;" vertex="1" parent="1">
          <mxGeometry x="525" y="560.75" width="30" height="20" as="geometry" />
        </mxCell>
        <mxCell id="I67YQaIDLJy_PH9fDKKf-255" value="" style="rounded=1;whiteSpace=wrap;html=1;fillColor=#fff2cc;strokeColor=#d6b656;sketch=1;curveFitting=1;jiggle=2;" vertex="1" parent="1">
          <mxGeometry x="525" y="580.75" width="30" height="20" as="geometry" />
        </mxCell>
        <mxCell id="I67YQaIDLJy_PH9fDKKf-256" value="" style="rounded=1;whiteSpace=wrap;html=1;fillColor=#fff2cc;strokeColor=#d6b656;sketch=1;curveFitting=1;jiggle=2;" vertex="1" parent="1">
          <mxGeometry x="525" y="600.75" width="30" height="20" as="geometry" />
        </mxCell>
        <mxCell id="I67YQaIDLJy_PH9fDKKf-257" value="" style="rounded=1;whiteSpace=wrap;html=1;fillColor=#fff2cc;strokeColor=#d6b656;sketch=1;curveFitting=1;jiggle=2;" vertex="1" parent="1">
          <mxGeometry x="525" y="620.75" width="30" height="20" as="geometry" />
        </mxCell>
        <mxCell id="I67YQaIDLJy_PH9fDKKf-258" value="" style="rounded=1;whiteSpace=wrap;html=1;fillColor=#fff2cc;strokeColor=#d6b656;sketch=1;curveFitting=1;jiggle=2;" vertex="1" parent="1">
          <mxGeometry x="525" y="640.75" width="30" height="20" as="geometry" />
        </mxCell>
        <mxCell id="I67YQaIDLJy_PH9fDKKf-259" value="" style="rounded=1;whiteSpace=wrap;html=1;fillColor=#fff2cc;strokeColor=#d6b656;sketch=1;curveFitting=1;jiggle=2;" vertex="1" parent="1">
          <mxGeometry x="525" y="660.75" width="30" height="20" as="geometry" />
        </mxCell>
        <mxCell id="I67YQaIDLJy_PH9fDKKf-260" value="" style="rounded=1;whiteSpace=wrap;html=1;fillColor=#fff2cc;strokeColor=#d6b656;sketch=1;curveFitting=1;jiggle=2;" vertex="1" parent="1">
          <mxGeometry x="525" y="680.75" width="30" height="20" as="geometry" />
        </mxCell>
        <mxCell id="I67YQaIDLJy_PH9fDKKf-261" value="" style="rounded=1;whiteSpace=wrap;html=1;fillColor=#fff2cc;strokeColor=#d6b656;sketch=1;curveFitting=1;jiggle=2;" vertex="1" parent="1">
          <mxGeometry x="525" y="700.75" width="30" height="20" as="geometry" />
        </mxCell>
        <mxCell id="I67YQaIDLJy_PH9fDKKf-262" value="" style="rounded=1;whiteSpace=wrap;html=1;fillColor=#fff2cc;strokeColor=#d6b656;sketch=1;curveFitting=1;jiggle=2;" vertex="1" parent="1">
          <mxGeometry x="525" y="720.75" width="30" height="20" as="geometry" />
        </mxCell>
        <mxCell id="I67YQaIDLJy_PH9fDKKf-263" value="" style="rounded=1;whiteSpace=wrap;html=1;fillColor=#fff2cc;strokeColor=#d6b656;sketch=1;curveFitting=1;jiggle=2;" vertex="1" parent="1">
          <mxGeometry x="525" y="740.75" width="30" height="20" as="geometry" />
        </mxCell>
        <mxCell id="I67YQaIDLJy_PH9fDKKf-264" value="" style="rounded=1;whiteSpace=wrap;html=1;fillColor=#fff2cc;strokeColor=#d6b656;sketch=1;curveFitting=1;jiggle=2;" vertex="1" parent="1">
          <mxGeometry x="525" y="760.75" width="30" height="20" as="geometry" />
        </mxCell>
        <mxCell id="I67YQaIDLJy_PH9fDKKf-265" value="" style="rounded=1;whiteSpace=wrap;html=1;fillColor=#fff2cc;strokeColor=#d6b656;sketch=1;curveFitting=1;jiggle=2;" vertex="1" parent="1">
          <mxGeometry x="525" y="780.75" width="30" height="20" as="geometry" />
        </mxCell>
        <mxCell id="I67YQaIDLJy_PH9fDKKf-266" value="" style="rounded=1;whiteSpace=wrap;html=1;fillColor=#fff2cc;strokeColor=#d6b656;sketch=1;curveFitting=1;jiggle=2;" vertex="1" parent="1">
          <mxGeometry x="525" y="803.75" width="30" height="20" as="geometry" />
        </mxCell>
        <mxCell id="I67YQaIDLJy_PH9fDKKf-267" value="" style="rounded=1;whiteSpace=wrap;html=1;fillColor=#fff2cc;strokeColor=#d6b656;sketch=1;curveFitting=1;jiggle=2;" vertex="1" parent="1">
          <mxGeometry x="525" y="823.75" width="30" height="20" as="geometry" />
        </mxCell>
        <mxCell id="I67YQaIDLJy_PH9fDKKf-268" value="" style="rounded=1;whiteSpace=wrap;html=1;fillColor=#fff2cc;strokeColor=#d6b656;sketch=1;curveFitting=1;jiggle=2;" vertex="1" parent="1">
          <mxGeometry x="525" y="843.75" width="30" height="20" as="geometry" />
        </mxCell>
        <mxCell id="I67YQaIDLJy_PH9fDKKf-269" value="" style="rounded=1;whiteSpace=wrap;html=1;fillColor=#fff2cc;strokeColor=#d6b656;sketch=1;curveFitting=1;jiggle=2;" vertex="1" parent="1">
          <mxGeometry x="525" y="863.75" width="30" height="20" as="geometry" />
        </mxCell>
        <mxCell id="I67YQaIDLJy_PH9fDKKf-270" style="edgeStyle=orthogonalEdgeStyle;shape=connector;rounded=0;orthogonalLoop=1;jettySize=auto;html=1;exitX=0.5;exitY=1;exitDx=0;exitDy=0;strokeColor=default;strokeWidth=2;align=center;verticalAlign=middle;fontFamily=Helvetica;fontSize=11;fontColor=default;labelBackgroundColor=default;endArrow=diamondThin;endFill=0;" edge="1" parent="1" target="I67YQaIDLJy_PH9fDKKf-271">
          <mxGeometry relative="1" as="geometry">
            <mxPoint x="580" y="497.25" as="sourcePoint" />
          </mxGeometry>
        </mxCell>
        <mxCell id="I67YQaIDLJy_PH9fDKKf-271" value="" style="rounded=1;whiteSpace=wrap;html=1;fillColor=#fff2cc;strokeColor=#d6b656;sketch=1;curveFitting=1;jiggle=2;" vertex="1" parent="1">
          <mxGeometry x="565" y="561.25" width="30" height="20" as="geometry" />
        </mxCell>
        <mxCell id="I67YQaIDLJy_PH9fDKKf-272" value="" style="rounded=1;whiteSpace=wrap;html=1;fillColor=#fff2cc;strokeColor=#d6b656;sketch=1;curveFitting=1;jiggle=2;" vertex="1" parent="1">
          <mxGeometry x="565" y="581.25" width="30" height="20" as="geometry" />
        </mxCell>
        <mxCell id="I67YQaIDLJy_PH9fDKKf-273" value="" style="rounded=1;whiteSpace=wrap;html=1;fillColor=#fff2cc;strokeColor=#d6b656;sketch=1;curveFitting=1;jiggle=2;" vertex="1" parent="1">
          <mxGeometry x="565" y="601.25" width="30" height="20" as="geometry" />
        </mxCell>
        <mxCell id="I67YQaIDLJy_PH9fDKKf-274" value="" style="rounded=1;whiteSpace=wrap;html=1;fillColor=#fff2cc;strokeColor=#d6b656;sketch=1;curveFitting=1;jiggle=2;" vertex="1" parent="1">
          <mxGeometry x="565" y="621.25" width="30" height="20" as="geometry" />
        </mxCell>
        <mxCell id="I67YQaIDLJy_PH9fDKKf-275" value="" style="rounded=1;whiteSpace=wrap;html=1;fillColor=#fff2cc;strokeColor=#d6b656;sketch=1;curveFitting=1;jiggle=2;" vertex="1" parent="1">
          <mxGeometry x="565" y="641.25" width="30" height="20" as="geometry" />
        </mxCell>
        <mxCell id="I67YQaIDLJy_PH9fDKKf-276" value="" style="rounded=1;whiteSpace=wrap;html=1;fillColor=#fff2cc;strokeColor=#d6b656;sketch=1;curveFitting=1;jiggle=2;" vertex="1" parent="1">
          <mxGeometry x="565" y="661.25" width="30" height="20" as="geometry" />
        </mxCell>
        <mxCell id="I67YQaIDLJy_PH9fDKKf-277" value="" style="rounded=1;whiteSpace=wrap;html=1;fillColor=#fff2cc;strokeColor=#d6b656;sketch=1;curveFitting=1;jiggle=2;" vertex="1" parent="1">
          <mxGeometry x="565" y="681.25" width="30" height="20" as="geometry" />
        </mxCell>
        <mxCell id="I67YQaIDLJy_PH9fDKKf-278" value="" style="rounded=1;whiteSpace=wrap;html=1;fillColor=#fff2cc;strokeColor=#d6b656;sketch=1;curveFitting=1;jiggle=2;" vertex="1" parent="1">
          <mxGeometry x="565" y="701.25" width="30" height="20" as="geometry" />
        </mxCell>
        <mxCell id="I67YQaIDLJy_PH9fDKKf-279" value="" style="rounded=1;whiteSpace=wrap;html=1;fillColor=#fff2cc;strokeColor=#d6b656;sketch=1;curveFitting=1;jiggle=2;" vertex="1" parent="1">
          <mxGeometry x="565" y="721.25" width="30" height="20" as="geometry" />
        </mxCell>
        <mxCell id="I67YQaIDLJy_PH9fDKKf-280" value="" style="rounded=1;whiteSpace=wrap;html=1;fillColor=#fff2cc;strokeColor=#d6b656;sketch=1;curveFitting=1;jiggle=2;" vertex="1" parent="1">
          <mxGeometry x="565" y="741.25" width="30" height="20" as="geometry" />
        </mxCell>
        <mxCell id="I67YQaIDLJy_PH9fDKKf-281" value="" style="rounded=1;whiteSpace=wrap;html=1;fillColor=#fff2cc;strokeColor=#d6b656;sketch=1;curveFitting=1;jiggle=2;" vertex="1" parent="1">
          <mxGeometry x="565" y="761.25" width="30" height="20" as="geometry" />
        </mxCell>
        <mxCell id="I67YQaIDLJy_PH9fDKKf-282" value="" style="rounded=1;whiteSpace=wrap;html=1;fillColor=#fff2cc;strokeColor=#d6b656;sketch=1;curveFitting=1;jiggle=2;" vertex="1" parent="1">
          <mxGeometry x="565" y="781.25" width="30" height="20" as="geometry" />
        </mxCell>
        <mxCell id="I67YQaIDLJy_PH9fDKKf-283" value="" style="rounded=1;whiteSpace=wrap;html=1;fillColor=#fff2cc;strokeColor=#d6b656;sketch=1;curveFitting=1;jiggle=2;" vertex="1" parent="1">
          <mxGeometry x="565" y="804.25" width="30" height="20" as="geometry" />
        </mxCell>
        <mxCell id="I67YQaIDLJy_PH9fDKKf-284" value="" style="rounded=1;whiteSpace=wrap;html=1;fillColor=#fff2cc;strokeColor=#d6b656;sketch=1;curveFitting=1;jiggle=2;" vertex="1" parent="1">
          <mxGeometry x="565" y="824.25" width="30" height="20" as="geometry" />
        </mxCell>
        <mxCell id="I67YQaIDLJy_PH9fDKKf-285" value="" style="rounded=1;whiteSpace=wrap;html=1;fillColor=#fff2cc;strokeColor=#d6b656;sketch=1;curveFitting=1;jiggle=2;" vertex="1" parent="1">
          <mxGeometry x="565" y="844.25" width="30" height="20" as="geometry" />
        </mxCell>
        <mxCell id="I67YQaIDLJy_PH9fDKKf-286" value="" style="rounded=1;whiteSpace=wrap;html=1;fillColor=#fff2cc;strokeColor=#d6b656;sketch=1;curveFitting=1;jiggle=2;" vertex="1" parent="1">
          <mxGeometry x="565" y="864.25" width="30" height="20" as="geometry" />
        </mxCell>
        <mxCell id="I67YQaIDLJy_PH9fDKKf-287" style="edgeStyle=orthogonalEdgeStyle;shape=connector;rounded=0;orthogonalLoop=1;jettySize=auto;html=1;exitX=0.5;exitY=1;exitDx=0;exitDy=0;strokeColor=default;strokeWidth=2;align=center;verticalAlign=middle;fontFamily=Helvetica;fontSize=11;fontColor=default;labelBackgroundColor=default;endArrow=diamondThin;endFill=0;" edge="1" parent="1" target="I67YQaIDLJy_PH9fDKKf-288">
          <mxGeometry relative="1" as="geometry">
            <mxPoint x="620" y="497.25" as="sourcePoint" />
          </mxGeometry>
        </mxCell>
        <mxCell id="I67YQaIDLJy_PH9fDKKf-288" value="" style="rounded=1;whiteSpace=wrap;html=1;fillColor=#fff2cc;strokeColor=#d6b656;sketch=1;curveFitting=1;jiggle=2;" vertex="1" parent="1">
          <mxGeometry x="605" y="561.25" width="30" height="20" as="geometry" />
        </mxCell>
        <mxCell id="I67YQaIDLJy_PH9fDKKf-289" value="" style="rounded=1;whiteSpace=wrap;html=1;fillColor=#fff2cc;strokeColor=#d6b656;sketch=1;curveFitting=1;jiggle=2;" vertex="1" parent="1">
          <mxGeometry x="605" y="581.25" width="30" height="20" as="geometry" />
        </mxCell>
        <mxCell id="I67YQaIDLJy_PH9fDKKf-290" value="&lt;span style=&quot;font-family: &amp;quot;Comic Sans MS&amp;quot;;&quot;&gt;2&lt;/span&gt;" style="rounded=1;whiteSpace=wrap;html=1;fillColor=#fff2cc;strokeColor=#d6b656;sketch=1;curveFitting=1;jiggle=2;" vertex="1" parent="1">
          <mxGeometry x="605" y="601.25" width="30" height="20" as="geometry" />
        </mxCell>
        <mxCell id="I67YQaIDLJy_PH9fDKKf-291" value="" style="rounded=1;whiteSpace=wrap;html=1;fillColor=#fff2cc;strokeColor=#d6b656;sketch=1;curveFitting=1;jiggle=2;" vertex="1" parent="1">
          <mxGeometry x="605" y="621.25" width="30" height="20" as="geometry" />
        </mxCell>
        <mxCell id="I67YQaIDLJy_PH9fDKKf-292" value="" style="rounded=1;whiteSpace=wrap;html=1;fillColor=#fff2cc;strokeColor=#d6b656;sketch=1;curveFitting=1;jiggle=2;" vertex="1" parent="1">
          <mxGeometry x="605" y="641.25" width="30" height="20" as="geometry" />
        </mxCell>
        <mxCell id="I67YQaIDLJy_PH9fDKKf-293" value="" style="rounded=1;whiteSpace=wrap;html=1;fillColor=#fff2cc;strokeColor=#d6b656;sketch=1;curveFitting=1;jiggle=2;" vertex="1" parent="1">
          <mxGeometry x="605" y="661.25" width="30" height="20" as="geometry" />
        </mxCell>
        <mxCell id="I67YQaIDLJy_PH9fDKKf-294" value="" style="rounded=1;whiteSpace=wrap;html=1;fillColor=#fff2cc;strokeColor=#d6b656;sketch=1;curveFitting=1;jiggle=2;" vertex="1" parent="1">
          <mxGeometry x="605" y="681.25" width="30" height="20" as="geometry" />
        </mxCell>
        <mxCell id="I67YQaIDLJy_PH9fDKKf-295" value="" style="rounded=1;whiteSpace=wrap;html=1;fillColor=#fff2cc;strokeColor=#d6b656;sketch=1;curveFitting=1;jiggle=2;" vertex="1" parent="1">
          <mxGeometry x="605" y="701.25" width="30" height="20" as="geometry" />
        </mxCell>
        <mxCell id="I67YQaIDLJy_PH9fDKKf-296" value="" style="rounded=1;whiteSpace=wrap;html=1;fillColor=#fff2cc;strokeColor=#d6b656;sketch=1;curveFitting=1;jiggle=2;" vertex="1" parent="1">
          <mxGeometry x="605" y="721.25" width="30" height="20" as="geometry" />
        </mxCell>
        <mxCell id="I67YQaIDLJy_PH9fDKKf-297" value="" style="rounded=1;whiteSpace=wrap;html=1;fillColor=#fff2cc;strokeColor=#d6b656;sketch=1;curveFitting=1;jiggle=2;" vertex="1" parent="1">
          <mxGeometry x="605" y="741.25" width="30" height="20" as="geometry" />
        </mxCell>
        <mxCell id="I67YQaIDLJy_PH9fDKKf-298" value="" style="rounded=1;whiteSpace=wrap;html=1;fillColor=#fff2cc;strokeColor=#d6b656;sketch=1;curveFitting=1;jiggle=2;" vertex="1" parent="1">
          <mxGeometry x="605" y="761.25" width="30" height="20" as="geometry" />
        </mxCell>
        <mxCell id="I67YQaIDLJy_PH9fDKKf-299" value="" style="rounded=1;whiteSpace=wrap;html=1;fillColor=#fff2cc;strokeColor=#d6b656;sketch=1;curveFitting=1;jiggle=2;" vertex="1" parent="1">
          <mxGeometry x="605" y="781.25" width="30" height="20" as="geometry" />
        </mxCell>
        <mxCell id="I67YQaIDLJy_PH9fDKKf-300" value="" style="rounded=1;whiteSpace=wrap;html=1;fillColor=#fff2cc;strokeColor=#d6b656;sketch=1;curveFitting=1;jiggle=2;" vertex="1" parent="1">
          <mxGeometry x="605" y="804.25" width="30" height="20" as="geometry" />
        </mxCell>
        <mxCell id="I67YQaIDLJy_PH9fDKKf-301" value="" style="rounded=1;whiteSpace=wrap;html=1;fillColor=#fff2cc;strokeColor=#d6b656;sketch=1;curveFitting=1;jiggle=2;" vertex="1" parent="1">
          <mxGeometry x="605" y="824.25" width="30" height="20" as="geometry" />
        </mxCell>
        <mxCell id="I67YQaIDLJy_PH9fDKKf-302" value="" style="rounded=1;whiteSpace=wrap;html=1;fillColor=#fff2cc;strokeColor=#d6b656;sketch=1;curveFitting=1;jiggle=2;" vertex="1" parent="1">
          <mxGeometry x="605" y="844.25" width="30" height="20" as="geometry" />
        </mxCell>
        <mxCell id="I67YQaIDLJy_PH9fDKKf-303" value="" style="rounded=1;whiteSpace=wrap;html=1;fillColor=#fff2cc;strokeColor=#d6b656;sketch=1;curveFitting=1;jiggle=2;" vertex="1" parent="1">
          <mxGeometry x="605" y="864.25" width="30" height="20" as="geometry" />
        </mxCell>
        <mxCell id="I67YQaIDLJy_PH9fDKKf-304" style="edgeStyle=none;shape=connector;rounded=0;orthogonalLoop=1;jettySize=auto;html=1;exitX=0;exitY=1;exitDx=0;exitDy=0;strokeColor=default;strokeWidth=2;align=center;verticalAlign=middle;fontFamily=Helvetica;fontSize=11;fontColor=default;labelBackgroundColor=default;endArrow=open;endFill=0;entryX=0.5;entryY=0;entryDx=0;entryDy=0;" edge="1" parent="1" source="I67YQaIDLJy_PH9fDKKf-314" target="I67YQaIDLJy_PH9fDKKf-161">
          <mxGeometry relative="1" as="geometry">
            <mxPoint x="385" y="446" as="targetPoint" />
            <mxPoint x="435" y="376" as="sourcePoint" />
          </mxGeometry>
        </mxCell>
        <mxCell id="I67YQaIDLJy_PH9fDKKf-305" value="&lt;font face=&quot;Comic Sans MS&quot;&gt;&lt;b&gt;hash(0)&lt;/b&gt;&lt;/font&gt;" style="edgeLabel;html=1;align=center;verticalAlign=middle;resizable=0;points=[];fontFamily=Helvetica;fontSize=11;fontColor=default;labelBackgroundColor=default;" vertex="1" connectable="0" parent="I67YQaIDLJy_PH9fDKKf-304">
          <mxGeometry x="-0.3649" y="-3" relative="1" as="geometry">
            <mxPoint x="-30" as="offset" />
          </mxGeometry>
        </mxCell>
        <mxCell id="I67YQaIDLJy_PH9fDKKf-306" style="edgeStyle=none;shape=connector;rounded=0;orthogonalLoop=1;jettySize=auto;html=1;exitX=0.5;exitY=1;exitDx=0;exitDy=0;entryX=0.5;entryY=0;entryDx=0;entryDy=0;strokeColor=default;strokeWidth=2;align=center;verticalAlign=middle;fontFamily=Helvetica;fontSize=11;fontColor=default;labelBackgroundColor=default;endArrow=open;endFill=0;" edge="1" parent="1" source="I67YQaIDLJy_PH9fDKKf-314" target="I67YQaIDLJy_PH9fDKKf-162">
          <mxGeometry relative="1" as="geometry">
            <mxPoint x="455" y="376" as="sourcePoint" />
          </mxGeometry>
        </mxCell>
        <mxCell id="I67YQaIDLJy_PH9fDKKf-307" style="edgeStyle=none;shape=connector;rounded=0;orthogonalLoop=1;jettySize=auto;html=1;exitX=0.75;exitY=1;exitDx=0;exitDy=0;entryX=0.5;entryY=0;entryDx=0;entryDy=0;strokeColor=default;strokeWidth=2;align=center;verticalAlign=middle;fontFamily=Helvetica;fontSize=11;fontColor=default;labelBackgroundColor=default;endArrow=open;endFill=0;" edge="1" parent="1" source="I67YQaIDLJy_PH9fDKKf-314" target="I67YQaIDLJy_PH9fDKKf-233">
          <mxGeometry relative="1" as="geometry">
            <mxPoint x="465" y="376" as="sourcePoint" />
          </mxGeometry>
        </mxCell>
        <mxCell id="I67YQaIDLJy_PH9fDKKf-308" style="edgeStyle=none;shape=connector;rounded=0;orthogonalLoop=1;jettySize=auto;html=1;exitX=0.975;exitY=0.905;exitDx=0;exitDy=0;entryX=0.5;entryY=0;entryDx=0;entryDy=0;strokeColor=default;strokeWidth=2;align=center;verticalAlign=middle;fontFamily=Helvetica;fontSize=11;fontColor=default;labelBackgroundColor=default;endArrow=open;endFill=0;exitPerimeter=0;" edge="1" parent="1" source="I67YQaIDLJy_PH9fDKKf-314" target="I67YQaIDLJy_PH9fDKKf-234">
          <mxGeometry relative="1" as="geometry">
            <mxPoint x="475" y="376" as="sourcePoint" />
          </mxGeometry>
        </mxCell>
        <mxCell id="I67YQaIDLJy_PH9fDKKf-310" value="&lt;font face=&quot;Comic Sans MS&quot;&gt;&lt;b&gt;hash(1)&lt;/b&gt;&lt;/font&gt;" style="edgeLabel;html=1;align=center;verticalAlign=middle;resizable=0;points=[];fontFamily=Helvetica;fontSize=11;fontColor=default;labelBackgroundColor=default;" vertex="1" connectable="0" parent="1">
          <mxGeometry x="400.0021749533254" y="410.0105215663591" as="geometry">
            <mxPoint x="42" y="14" as="offset" />
          </mxGeometry>
        </mxCell>
        <mxCell id="I67YQaIDLJy_PH9fDKKf-311" value="&lt;font face=&quot;Comic Sans MS&quot;&gt;&lt;b&gt;hash(2)&lt;/b&gt;&lt;/font&gt;" style="edgeLabel;html=1;align=center;verticalAlign=middle;resizable=0;points=[];fontFamily=Helvetica;fontSize=11;fontColor=default;labelBackgroundColor=default;" vertex="1" connectable="0" parent="1">
          <mxGeometry x="460.0021749533254" y="410.0105215663591" as="geometry">
            <mxPoint x="42" y="14" as="offset" />
          </mxGeometry>
        </mxCell>
        <mxCell id="I67YQaIDLJy_PH9fDKKf-312" value="&lt;font face=&quot;Comic Sans MS&quot;&gt;&lt;b&gt;hash(3)&lt;/b&gt;&lt;/font&gt;" style="edgeLabel;html=1;align=center;verticalAlign=middle;resizable=0;points=[];fontFamily=Helvetica;fontSize=11;fontColor=default;labelBackgroundColor=default;" vertex="1" connectable="0" parent="1">
          <mxGeometry x="525.0021749533254" y="396.0005215663591" as="geometry">
            <mxPoint x="42" y="14" as="offset" />
          </mxGeometry>
        </mxCell>
        <mxCell id="I67YQaIDLJy_PH9fDKKf-314" value="&lt;font style=&quot;font-size: 15px;&quot; face=&quot;Comic Sans MS&quot;&gt;&lt;b&gt;e&lt;/b&gt;&lt;/font&gt;" style="rounded=1;whiteSpace=wrap;html=1;fillColor=#f8cecc;strokeColor=#b85450;sketch=1;curveFitting=1;jiggle=2;" vertex="1" parent="1">
          <mxGeometry x="440" y="350" width="30" height="20" as="geometry" />
        </mxCell>
      </root>
    </mxGraphModel>
  </diagram>
</mxfile>
